<svg xmlns="http://www.w3.org/2000/svg" xmlns:xlink="http://www.w3.org/1999/xlink" width="51.43" height="48.053" viewBox="0 0 51.43 48.053"><defs><clipPath id="clip-path"><rect id="Ret&#xE2;ngulo_265" data-name="Ret&#xE2;ngulo 265" width="51.43" height="48.053" fill="none" stroke="#18273c" stroke-width="3"></rect></clipPath></defs><g id="Grupo_372" data-name="Grupo 372" transform="translate(0 0)"><g id="Grupo_371" data-name="Grupo 371" transform="translate(0 0)" clip-path="url(#clip-path)"><path id="Caminho_832" data-name="Caminho 832" d="M20.937,4.618C25.83,4.512,33.644-1.339,39.5,1.492c11.926,5.77-.693,21.374-.673,25.39.028,5.592-.049,14.362-3.871,18.518-2.7,2.939-4.632.58-4.21-3.3.323-2.968,1.2-6.672-.392-9.713-1.852-3.541-4.841-4.21-8.414-2.959-8.2,2.867-1.036,14.623-4.508,17.314-7.568-.582-7.265-13.365-7.367-19.467-.038-2.248-2.932-5.739-3.885-8.509C3.6,11.265.964,4.219,10.11,1.411a9.664,9.664,0,0,1,8.784,1.6c1.772,1.3,3.94,3.617,7.959,4.352" transform="translate(1.537 0.296)" fill="none" stroke="#18273c" stroke-linecap="round" stroke-linejoin="round" stroke-width="3"></path><path id="Ret&#xE2;ngulo_264" data-name="Ret&#xE2;ngulo 264" d="M1.982,0h8.025a1.982,1.982,0,0,1,1.982,1.982v8.041a1.983,1.983,0,0,1-1.983,1.983H1.982A1.982,1.982,0,0,1,0,10.024V1.982A1.982,1.982,0,0,1,1.982,0Z" transform="translate(19.72 11.917)" fill="none" stroke="#18273c" stroke-linecap="round" stroke-linejoin="round" stroke-width="3"></path><line id="Linha_7" data-name="Linha 7" x2="49.397" transform="translate(1.016 17.92)" fill="none" stroke="#18273c" stroke-linecap="round" stroke-linejoin="round" stroke-width="3"></line><line id="Linha_8" data-name="Linha 8" y1="8.905" transform="translate(25.715 13.467)" fill="none" stroke="#18273c" stroke-linecap="round" stroke-linejoin="round" stroke-width="3"></line></g></g></svg>