<svg xmlns="http://www.w3.org/2000/svg" xmlns:xlink="http://www.w3.org/1999/xlink" width="42.926" height="48.053" viewBox="0 0 42.926 48.053"><defs><clipPath id="clip-path"><rect id="Ret&#xE2;ngulo_266" data-name="Ret&#xE2;ngulo 266" width="42.926" height="48.053" fill="none" stroke="#18273c" stroke-width="3"></rect></clipPath></defs><g id="Grupo_374" data-name="Grupo 374" transform="translate(0 0)"><g id="Grupo_373" data-name="Grupo 373" transform="translate(0 0)" clip-path="url(#clip-path)"><path id="Caminho_833" data-name="Caminho 833" d="M17.925,4.618c4.893-.106,12.707-5.958,18.56-3.126,11.926,5.77-.693,21.374-.673,25.39.028,5.592-.049,14.362-3.871,18.518-2.7,2.939-4.632.58-4.21-3.3.323-2.968,1.2-6.672-.392-9.713-1.852-3.541-4.841-4.21-8.414-2.959-8.2,2.867-1.036,14.623-4.508,17.314C6.848,46.159,7.152,33.376,7.05,27.274c-.038-2.248-2.932-5.739-3.885-8.509C.584,11.265-2.048,4.219,7.1,1.411a9.664,9.664,0,0,1,8.784,1.6c1.772,1.3,3.94,3.617,7.959,4.352" transform="translate(0.297 0.296)" fill="none" stroke="#18273c" stroke-linecap="round" stroke-linejoin="round" stroke-width="3"></path></g></g></svg>